<svg width="19" height="18" viewBox="0 0 19 18" fill="none" xmlns="http://www.w3.org/2000/svg">
<path d="M9.61229 4.41743C12.0455 4.41743 14.0538 6.42578 14.0538 8.85897C14.0538 11.3308 12.0455 13.3005 9.61229 13.3005C7.14047 13.3005 5.17075 11.3308 5.17075 8.85897C5.17075 6.42578 7.14047 4.41743 9.61229 4.41743ZM9.61229 11.7556C11.1958 11.7556 12.4703 10.4811 12.4703 8.85897C12.4703 7.27547 11.1958 6.00094 9.61229 6.00094C7.99016 6.00094 6.71563 7.27547 6.71563 8.85897C6.71563 10.4811 8.02878 11.7556 9.61229 11.7556ZM15.2511 4.26294C15.2511 4.84227 14.7876 5.30574 14.2083 5.30574C13.629 5.30574 13.1655 4.84227 13.1655 4.26294C13.1655 3.68361 13.629 3.22015 14.2083 3.22015C14.7876 3.22015 15.2511 3.68361 15.2511 4.26294ZM18.1864 5.30574C18.2636 6.73476 18.2636 11.0218 18.1864 12.4508C18.1091 13.8412 17.8002 15.0385 16.796 16.0813C15.7918 17.0855 14.5559 17.3945 13.1655 17.4717C11.7365 17.5489 7.44945 17.5489 6.02043 17.4717C4.63004 17.3945 3.43275 17.0855 2.38996 16.0813C1.38578 15.0385 1.0768 13.8412 0.99956 12.4508C0.922315 11.0218 0.922315 6.73476 0.99956 5.30574C1.0768 3.91534 1.38578 2.67944 2.38996 1.67526C3.43275 0.671087 4.63004 0.36211 6.02043 0.284866C7.44945 0.207622 11.7365 0.207622 13.1655 0.284866C14.5559 0.36211 15.7918 0.671087 16.796 1.67526C17.8002 2.67944 18.1091 3.91534 18.1864 5.30574ZM16.3325 13.9571C16.796 12.837 16.6801 10.1335 16.6801 8.85897C16.6801 7.62306 16.796 4.91952 16.3325 3.76085C16.0236 3.02704 15.4442 2.40908 14.7104 2.13873C13.5517 1.67526 10.8482 1.79113 9.61229 1.79113C8.33776 1.79113 5.63421 1.67526 4.51417 2.13873C3.74173 2.4477 3.1624 3.02704 2.85342 3.76085C2.38996 4.91952 2.50582 7.62306 2.50582 8.85897C2.50582 10.1335 2.38996 12.837 2.85342 13.9571C3.1624 14.7295 3.74173 15.3089 4.51417 15.6178C5.63421 16.0813 8.33776 15.9654 9.61229 15.9654C10.8482 15.9654 13.5517 16.0813 14.7104 15.6178C15.4442 15.3089 16.0622 14.7295 16.3325 13.9571Z" fill="#222222"/>
</svg>
