<svg width="18" height="18" viewBox="0 0 18 18" fill="none" xmlns="http://www.w3.org/2000/svg">
<path d="M4.55948 17.2744H0.96762V5.72641H4.55948V17.2744ZM2.74424 4.18152C1.6242 4.18152 0.697266 3.21597 0.697266 2.05731C0.697266 0.937267 1.6242 0.0103371 2.74424 0.0103371C3.9029 0.0103371 4.82983 0.937267 4.82983 2.05731C4.82983 3.21597 3.9029 4.18152 2.74424 4.18152ZM17.9613 17.2744H14.4081V11.6742C14.4081 10.3224 14.3695 8.62306 12.5156 8.62306C10.6618 8.62306 10.3914 10.0521 10.3914 11.5583V17.2744H6.79956V5.72641H10.2369V7.30991H10.2755C10.7776 6.42161 11.9363 5.45605 13.6743 5.45605C17.3048 5.45605 18 7.85062 18 10.9404V17.2744H17.9613Z" fill="#222222"/>
</svg>
