<svg width="158" height="41" viewBox="0 0 158 41" fill="none" xmlns="http://www.w3.org/2000/svg">
<path d="M57.2403 27.9043V13.5763H52.3443V11.1043H65.2323V13.5763H60.3123V27.9043H57.2403ZM70.8091 28.1923C69.7531 28.1923 68.8251 28.0243 68.0251 27.6883C67.2251 27.3363 66.5851 26.8563 66.1051 26.2483C65.6251 25.6403 65.3371 24.9363 65.2411 24.1363H68.3371C68.4331 24.6003 68.6891 25.0003 69.1051 25.3363C69.5371 25.6563 70.0891 25.8163 70.7611 25.8163C71.4331 25.8163 71.9211 25.6803 72.2251 25.4083C72.5451 25.1363 72.7051 24.8243 72.7051 24.4723C72.7051 23.9603 72.4811 23.6163 72.0331 23.4403C71.5851 23.2483 70.9611 23.0643 70.1611 22.8883C69.6491 22.7763 69.1291 22.6403 68.6011 22.4803C68.0731 22.3203 67.5851 22.1203 67.1371 21.8803C66.7051 21.6243 66.3531 21.3043 66.0811 20.9203C65.8091 20.5203 65.6731 20.0323 65.6731 19.4563C65.6731 18.4003 66.0891 17.5123 66.9211 16.7923C67.7691 16.0723 68.9531 15.7123 70.4731 15.7123C71.8811 15.7123 73.0011 16.0403 73.8331 16.6963C74.6811 17.3523 75.1851 18.2563 75.3451 19.4083H72.4411C72.2651 18.5283 71.6011 18.0883 70.4491 18.0883C69.8731 18.0883 69.4251 18.2003 69.1051 18.4243C68.8011 18.6483 68.6491 18.9283 68.6491 19.2643C68.6491 19.6163 68.8811 19.8963 69.3451 20.1043C69.8091 20.3123 70.4251 20.5043 71.1931 20.6803C72.0251 20.8723 72.7851 21.0883 73.4731 21.3283C74.1771 21.5523 74.7371 21.8963 75.1531 22.3603C75.5691 22.8083 75.7771 23.4563 75.7771 24.3043C75.7931 25.0403 75.6011 25.7043 75.2011 26.2963C74.8011 26.8883 74.2251 27.3523 73.4731 27.6883C72.7211 28.0243 71.8331 28.1923 70.8091 28.1923ZM78.4985 27.9043V10.6243H81.5705V20.8243L85.7945 16.0003H89.4425L84.5705 21.4243L90.2345 27.9043H86.3945L81.5705 21.9283V27.9043H78.4985ZM92.1391 27.9043V16.0003H94.8751L95.1631 18.2323C95.5951 17.4643 96.1791 16.8563 96.9151 16.4083C97.6671 15.9443 98.5471 15.7123 99.5551 15.7123V18.9523H98.6911C98.0191 18.9523 97.4191 19.0563 96.8911 19.2643C96.3631 19.4723 95.9471 19.8323 95.6431 20.3443C95.3551 20.8563 95.2111 21.5683 95.2111 22.4803V27.9043H92.1391Z" fill="#222222"/>
<path d="M102.975 28.0723C102.415 28.0723 101.951 27.8963 101.583 27.5443C101.231 27.1923 101.055 26.7683 101.055 26.2723C101.055 25.7603 101.231 25.3283 101.583 24.9763C101.951 24.6243 102.415 24.4483 102.975 24.4483C103.535 24.4483 103.991 24.6243 104.343 24.9763C104.711 25.3283 104.895 25.7603 104.895 26.2723C104.895 26.7683 104.711 27.1923 104.343 27.5443C103.991 27.8963 103.535 28.0723 102.975 28.0723ZM113.252 28.1923C112.036 28.1923 110.964 27.9283 110.036 27.4003C109.108 26.8723 108.372 26.1363 107.828 25.1923C107.3 24.2483 107.036 23.1683 107.036 21.9523C107.036 20.7363 107.3 19.6563 107.828 18.7123C108.372 17.7683 109.108 17.0323 110.036 16.5043C110.964 15.9763 112.036 15.7123 113.252 15.7123C114.772 15.7123 116.052 16.1123 117.092 16.9123C118.132 17.6963 118.796 18.7843 119.084 20.1763H115.844C115.684 19.6003 115.364 19.1523 114.884 18.8323C114.42 18.4963 113.868 18.3283 113.228 18.3283C112.38 18.3283 111.66 18.6483 111.068 19.2883C110.476 19.9283 110.18 20.8163 110.18 21.9523C110.18 23.0883 110.476 23.9763 111.068 24.6163C111.66 25.2563 112.38 25.5763 113.228 25.5763C113.868 25.5763 114.42 25.4163 114.884 25.0963C115.364 24.7763 115.684 24.3203 115.844 23.7283H119.084C118.796 25.0723 118.132 26.1523 117.092 26.9683C116.052 27.7843 114.772 28.1923 113.252 28.1923ZM127.523 28.1923C126.371 28.1923 125.331 27.9283 124.403 27.4003C123.491 26.8723 122.763 26.1443 122.219 25.2163C121.691 24.2723 121.427 23.1843 121.427 21.9523C121.427 20.7203 121.699 19.6403 122.243 18.7123C122.787 17.7683 123.515 17.0323 124.427 16.5043C125.355 15.9763 126.395 15.7123 127.547 15.7123C128.683 15.7123 129.707 15.9763 130.619 16.5043C131.547 17.0323 132.275 17.7683 132.803 18.7123C133.347 19.6403 133.619 20.7203 133.619 21.9523C133.619 23.1843 133.347 24.2723 132.803 25.2163C132.275 26.1443 131.547 26.8723 130.619 27.4003C129.691 27.9283 128.659 28.1923 127.523 28.1923ZM127.523 25.5283C128.323 25.5283 129.019 25.2323 129.611 24.6403C130.203 24.0323 130.499 23.1363 130.499 21.9523C130.499 20.7683 130.203 19.8803 129.611 19.2883C129.019 18.6803 128.331 18.3763 127.547 18.3763C126.731 18.3763 126.027 18.6803 125.435 19.2883C124.859 19.8803 124.571 20.7683 124.571 21.9523C124.571 23.1363 124.859 24.0323 125.435 24.6403C126.027 25.2323 126.723 25.5283 127.523 25.5283ZM136.366 27.9043V16.0003H139.078L139.342 17.6083C139.726 17.0323 140.23 16.5763 140.854 16.2403C141.494 15.8883 142.23 15.7123 143.062 15.7123C144.902 15.7123 146.206 16.4243 146.974 17.8483C147.406 17.1923 147.982 16.6723 148.702 16.2883C149.438 15.9043 150.238 15.7123 151.102 15.7123C152.654 15.7123 153.846 16.1763 154.678 17.1043C155.51 18.0323 155.926 19.3923 155.926 21.1843V27.9043H152.854V21.4723C152.854 20.4483 152.654 19.6643 152.254 19.1203C151.87 18.5763 151.27 18.3043 150.454 18.3043C149.622 18.3043 148.95 18.6083 148.438 19.2163C147.942 19.8243 147.694 20.6723 147.694 21.7603V27.9043H144.622V21.4723C144.622 20.4483 144.422 19.6643 144.022 19.1203C143.622 18.5763 143.006 18.3043 142.174 18.3043C141.358 18.3043 140.694 18.6083 140.182 19.2163C139.686 19.8243 139.438 20.6723 139.438 21.7603V27.9043H136.366Z" fill="#5BBB7B"/>
<path fill-rule="evenodd" clip-rule="evenodd" d="M0.946289 10.4395C0.946289 4.91661 5.42344 0.439453 10.9463 0.439453H30.9463C36.4691 0.439453 40.9463 4.91661 40.9463 10.4395V30.4395C40.9463 35.9623 36.4691 40.4395 30.9463 40.4395H10.9463C5.42344 40.4395 0.946289 35.9623 0.946289 30.4395V10.4395ZM24.5831 31.9468C23.2989 31.9468 22.2573 31.5466 21.4582 30.7461C20.6591 29.9456 20.2604 28.8763 20.2621 27.5383V9.03581H25.211V15.0968H30.3169V19.1907H25.211V26.6796C25.211 27.4311 25.5866 27.4302 26.2224 27.4286L26.3124 27.4285H30.3169V31.9493L24.5831 31.9468ZM11.5606 14.256H17.5548V20.2502H11.5606V14.256Z" fill="#5BBB7B"/>
</svg>
