<svg width="25" height="24" viewBox="0 0 25 24" fill="none" xmlns="http://www.w3.org/2000/svg">
<g clip-path="url(#clip0_156_986)">
<path fill-rule="evenodd" clip-rule="evenodd" d="M0.5 5.625C0.5 5.32663 0.618526 5.04048 0.829505 4.8295C1.04048 4.61853 1.32663 4.5 1.625 4.5H23.375C23.6734 4.5 23.9595 4.61853 24.1705 4.8295C24.3815 5.04048 24.5 5.32663 24.5 5.625C24.5 5.92337 24.3815 6.20952 24.1705 6.4205C23.9595 6.63147 23.6734 6.75 23.375 6.75H1.625C1.32663 6.75 1.04048 6.63147 0.829505 6.4205C0.618526 6.20952 0.5 5.92337 0.5 5.625ZM0.5 12C0.5 11.7016 0.618526 11.4155 0.829505 11.2045C1.04048 10.9935 1.32663 10.875 1.625 10.875H23.375C23.6734 10.875 23.9595 10.9935 24.1705 11.2045C24.3815 11.4155 24.5 11.7016 24.5 12C24.5 12.2984 24.3815 12.5845 24.1705 12.7955C23.9595 13.0065 23.6734 13.125 23.375 13.125H1.625C1.32663 13.125 1.04048 13.0065 0.829505 12.7955C0.618526 12.5845 0.5 12.2984 0.5 12ZM1.625 17.25C1.32663 17.25 1.04048 17.3685 0.829505 17.5795C0.618526 17.7905 0.5 18.0766 0.5 18.375C0.5 18.6734 0.618526 18.9595 0.829505 19.1705C1.04048 19.3815 1.32663 19.5 1.625 19.5H23.375C23.6734 19.5 23.9595 19.3815 24.1705 19.1705C24.3815 18.9595 24.5 18.6734 24.5 18.375C24.5 18.0766 24.3815 17.7905 24.1705 17.5795C23.9595 17.3685 23.6734 17.25 23.375 17.25H1.625Z" fill="black"/>
</g>
<defs>
<clipPath id="clip0_156_986">
<rect width="24" height="24" fill="white" transform="translate(0.5)"/>
</clipPath>
</defs>
</svg>
