<svg width="21" height="17" viewBox="0 0 21 17" fill="none" xmlns="http://www.w3.org/2000/svg">
<path d="M18.54 4.84227C18.54 5.03538 18.54 5.18987 18.54 5.38298C18.54 10.7515 14.4847 16.8924 7.03066 16.8924C4.71333 16.8924 2.58912 16.2358 0.8125 15.0771C1.12148 15.1158 1.43045 15.1544 1.77805 15.1544C3.67054 15.1544 5.40853 14.4978 6.79892 13.4164C5.02231 13.3778 3.51605 12.2191 3.01396 10.597C3.28431 10.6356 3.51605 10.6742 3.7864 10.6742C4.134 10.6742 4.52022 10.597 4.8292 10.5197C2.97534 10.1335 1.58494 8.51137 1.58494 6.54165V6.50302C2.12565 6.812 2.78223 6.96649 3.4388 7.00511C2.31876 6.27129 1.62356 5.03538 1.62356 3.64499C1.62356 2.87255 1.81667 2.17735 2.16427 1.59802C4.17262 4.03121 7.18515 5.65334 10.5453 5.84645C10.468 5.53747 10.4294 5.22849 10.4294 4.91952C10.4294 2.67944 12.2446 0.864198 14.4847 0.864198C15.6434 0.864198 16.6862 1.32766 17.4586 2.13873C18.3469 1.94562 19.2352 1.59802 20.0077 1.13455C19.6987 2.1001 19.0808 2.87255 18.2311 3.37463C19.0421 3.29739 19.8532 3.06566 20.5484 2.75668C20.0077 3.56774 19.3125 4.26294 18.54 4.84227Z" fill="#222222"/>
</svg>
